<?xml version="1.0" encoding="UTF-8"?>
<svg xmlns="http://www.w3.org/2000/svg" xmlns:xlink="http://www.w3.org/1999/xlink" width="70px" height="70px" viewBox="0 0 70 70" version="1.1">
<g id="surface1">
<path style=" stroke:none;fill-rule:nonzero;fill:rgb(0%,0%,0%);fill-opacity:1;" d="M 35 6.5625 C 50.714844 6.5625 63.4375 19.28125 63.4375 35 C 63.4375 50.714844 50.71875 63.4375 35 63.4375 C 19.285156 63.4375 6.5625 50.71875 6.5625 35 C 6.5625 19.285156 19.28125 6.5625 35 6.5625 M 35 1.09375 C 16.273438 1.09375 1.09375 16.273438 1.09375 35 C 1.09375 53.726562 16.273438 68.90625 35 68.90625 C 53.726562 68.90625 68.90625 53.726562 68.90625 35 C 68.90625 16.273438 53.726562 1.09375 35 1.09375 Z M 35 8.75 C 20.503906 8.75 8.75 20.503906 8.75 35 C 8.75 49.496094 20.503906 61.25 35 61.25 C 49.496094 61.25 61.25 49.496094 61.25 35 C 61.25 20.503906 49.496094 8.75 35 8.75 Z M 35 14.765625 C 37.71875 14.765625 39.921875 16.96875 39.921875 19.6875 C 39.921875 22.40625 37.71875 24.609375 35 24.609375 C 32.28125 24.609375 30.078125 22.40625 30.078125 19.6875 C 30.078125 16.96875 32.28125 14.765625 35 14.765625 Z M 51.097656 28.167969 C 47.171875 29.09375 43.507812 29.910156 39.867188 30.328125 C 39.984375 44.140625 41.550781 47.152344 43.289062 51.605469 C 43.785156 52.871094 43.160156 54.296875 41.894531 54.792969 C 40.628906 55.285156 39.199219 54.664062 38.707031 53.394531 C 37.515625 50.34375 36.371094 47.839844 35.660156 42.65625 L 34.339844 42.65625 C 33.628906 47.832031 32.488281 50.34375 31.292969 53.394531 C 30.800781 54.660156 29.371094 55.285156 28.105469 54.792969 C 26.839844 54.296875 26.214844 52.871094 26.710938 51.605469 C 28.449219 47.152344 30.015625 44.144531 30.132812 30.328125 C 26.492188 29.910156 22.828125 29.09375 18.902344 28.167969 C 17.726562 27.886719 17 26.710938 17.277344 25.535156 C 17.554688 24.359375 18.734375 23.632812 19.910156 23.910156 C 33.128906 27.027344 36.902344 27.023438 50.089844 23.910156 C 51.265625 23.632812 52.449219 24.359375 52.722656 25.535156 C 53 26.710938 52.273438 27.886719 51.097656 28.167969 Z M 51.097656 28.167969 "/>
</g>
</svg>
