<?xml version="1.0" encoding="UTF-8"?>
<svg xmlns="http://www.w3.org/2000/svg" xmlns:xlink="http://www.w3.org/1999/xlink" width="70px" height="70px" viewBox="0 0 70 70" version="1.1">
<g id="surface1">
<path style=" stroke:none;fill-rule:nonzero;fill:rgb(0%,0%,0%);fill-opacity:1;" d="M 69.273438 53.835938 C 66.777344 54.46875 65.238281 53.863281 63.851562 51.785156 C 60.746094 47.128906 57.316406 42.6875 54.007812 38.167969 C 53.582031 37.582031 53.140625 37.007812 52.585938 36.28125 C 48.671875 41.5625 44.761719 46.59375 41.09375 51.828125 C 39.78125 53.699219 38.402344 54.511719 35.953125 53.851562 L 50.671875 34.09375 L 36.96875 16.246094 C 39.324219 15.789062 40.957031 16.023438 42.398438 18.132812 C 45.585938 22.792969 49.105469 27.230469 52.609375 31.921875 C 56.136719 27.246094 59.609375 22.804688 62.890625 18.1875 C 64.207031 16.320312 65.625 15.609375 67.992188 16.296875 C 66.199219 18.675781 64.445312 21.015625 62.675781 23.339844 C 60.292969 26.472656 57.953125 29.644531 55.480469 32.714844 C 54.601562 33.808594 54.742188 34.519531 55.53125 35.550781 C 60.101562 41.5625 64.617188 47.632812 69.273438 53.835938 Z M 69.273438 53.835938 "/>
<path style=" stroke:none;fill-rule:nonzero;fill:rgb(0%,0%,0%);fill-opacity:1;" d="M 0.726562 33.765625 C 1.121094 31.789062 1.382812 29.777344 1.929688 27.839844 C 5.210938 16.121094 18.664062 11.25 27.90625 18.511719 C 33.320312 22.773438 34.667969 28.777344 34.398438 35.546875 L 3.882812 35.546875 C 3.421875 47.691406 12.167969 55.027344 23.3125 51.285156 C 27.222656 49.972656 29.527344 46.910156 30.679688 43.082031 C 31.265625 41.164062 32.234375 40.863281 34.039062 41.410156 C 33.113281 46.199219 31.019531 50.203125 26.644531 52.707031 C 20.082031 56.460938 10.714844 55.246094 5.785156 50.035156 C 2.875 46.972656 1.640625 43.160156 1.09375 39.042969 C 1.011719 38.386719 0.84375 37.738281 0.710938 37.089844 C 0.722656 35.980469 0.726562 34.871094 0.726562 33.765625 Z M 3.9375 32.949219 L 31.515625 32.949219 C 31.335938 24.167969 25.867188 17.925781 18.390625 17.871094 C 10.1875 17.804688 4.292969 23.898438 3.9375 32.949219 Z M 3.9375 32.949219 "/>
</g>
</svg>
