<?xml version="1.0" encoding="UTF-8"?>
<svg xmlns="http://www.w3.org/2000/svg" xmlns:xlink="http://www.w3.org/1999/xlink" width="70px" height="70px" viewBox="0 0 70 70" version="1.1">
<g id="surface1">
<path style=" stroke:none;fill-rule:evenodd;fill:rgb(26.27451%,60%,20.392157%);fill-opacity:1;" d="M 48.144531 23.414062 C 49.023438 25.953125 49.65625 28.542969 49.863281 31.230469 C 50.121094 34.566406 50.003906 37.875 49.300781 41.152344 C 49.28125 41.242188 49.242188 41.328125 49.210938 41.414062 C 48.992188 41.414062 48.769531 41.386719 48.550781 41.421875 C 46.730469 41.707031 44.910156 42.003906 43.089844 42.296875 C 41.210938 42.605469 39.328125 42.894531 37.453125 43.222656 C 36.785156 43.335938 35.964844 43.199219 35.699219 44.121094 C 35.6875 44.144531 35.609375 44.144531 35.566406 44.164062 L 35.660156 38.667969 C 35.625 34.246094 35.597656 29.824219 35.566406 25.402344 L 36.441406 25.253906 C 37.875 25.015625 39.308594 24.78125 40.738281 24.550781 C 42.449219 24.277344 44.164062 24.015625 45.878906 23.75 C 46.632812 23.632812 47.390625 23.523438 48.144531 23.414062 Z M 48.144531 23.414062 "/>
<path style=" stroke:none;fill-rule:evenodd;fill:rgb(27.058824%,64.705882%,21.960784%);fill-opacity:1;" d="M 33.757812 60.1875 C 32.835938 59.390625 31.878906 58.632812 30.992188 57.796875 C 26.226562 53.300781 22.738281 48.007812 21.019531 41.625 C 20.550781 39.871094 20.230469 38.085938 20.128906 36.269531 C 20.058594 35.003906 19.957031 33.71875 20.046875 32.457031 C 20.285156 29.097656 20.769531 25.769531 21.757812 22.535156 L 21.8125 22.457031 C 21.90625 22.585938 22.042969 22.699219 22.089844 22.839844 C 23.054688 25.671875 24.011719 28.511719 24.960938 31.347656 C 27.941406 40.261719 30.925781 49.175781 33.914062 58.089844 C 33.972656 58.261719 34.125 58.402344 34.234375 58.5625 Z M 33.757812 60.1875 "/>
<path style=" stroke:none;fill-rule:evenodd;fill:rgb(27.45098%,62.745098%,21.568627%);fill-opacity:1;" d="M 48.144531 23.414062 C 47.390625 23.523438 46.632812 23.632812 45.878906 23.746094 C 44.164062 24.015625 42.449219 24.277344 40.738281 24.550781 C 39.308594 24.777344 37.875 25.015625 36.441406 25.253906 L 35.566406 25.402344 L 35.558594 24.832031 C 35.527344 24.359375 35.480469 23.890625 35.472656 23.417969 C 35.433594 20.425781 35.414062 17.433594 35.375 14.433594 C 35.351562 12.558594 35.320312 10.683594 35.28125 8.808594 C 35.257812 7.644531 35.230469 6.476562 35.175781 5.316406 C 35.152344 4.691406 35.050781 4.070312 35.007812 3.441406 C 34.988281 3.085938 35.019531 2.722656 35.023438 2.363281 C 35.472656 3.230469 35.90625 4.097656 36.367188 4.957031 C 37.089844 6.320312 38.25 7.320312 39.289062 8.410156 C 43.402344 12.726562 46.324219 17.742188 48.144531 23.414062 Z M 48.144531 23.414062 "/>
<path style=" stroke:none;fill-rule:evenodd;fill:rgb(25.098039%,58.039216%,20%);fill-opacity:1;" d="M 35.566406 44.164062 C 35.609375 44.144531 35.6875 44.144531 35.695312 44.121094 C 35.964844 43.199219 36.785156 43.335938 37.453125 43.222656 C 39.328125 42.894531 41.210938 42.605469 43.089844 42.296875 C 44.910156 42.003906 46.726562 41.707031 48.550781 41.421875 C 48.765625 41.386719 48.992188 41.414062 49.210938 41.414062 C 48.871094 42.628906 48.605469 43.867188 48.171875 45.050781 C 47.679688 46.386719 47.089844 47.695312 46.460938 48.976562 C 45.519531 50.890625 44.347656 52.675781 42.984375 54.316406 C 41.933594 55.578125 40.765625 56.746094 39.589844 57.898438 C 38.945312 58.535156 38.179688 59.054688 37.46875 59.625 L 37.285156 59.5 L 36.621094 58.933594 L 35.933594 57.425781 C 35.460938 55.664062 35.214844 53.871094 35.171875 52.046875 L 35.183594 51.738281 L 35.277344 50.414062 C 35.308594 49.960938 35.351562 49.507812 35.371094 49.054688 C 35.441406 47.421875 35.5 45.792969 35.566406 44.164062 Z M 35.566406 44.164062 "/>
<path style=" stroke:none;fill-rule:evenodd;fill:rgb(30.980392%,66.666667%,25.490196%);fill-opacity:1;" d="M 35.566406 44.164062 C 35.5 45.792969 35.441406 47.421875 35.371094 49.054688 C 35.351562 49.507812 35.308594 49.960938 35.277344 50.414062 L 34.859375 50.574219 C 33.929688 47.839844 33 45.128906 32.09375 42.414062 C 30.589844 37.929688 29.101562 33.429688 27.601562 28.941406 C 26.390625 25.316406 25.167969 21.695312 23.9375 18.078125 C 23.878906 17.90625 23.714844 17.773438 23.601562 17.621094 L 26.277344 12.699219 C 26.367188 12.859375 26.492188 13.011719 26.546875 13.183594 C 27.785156 16.847656 29.027344 20.511719 30.25 24.183594 C 31.84375 28.957031 33.425781 33.734375 35.023438 38.511719 C 35.085938 38.699219 35.191406 38.878906 35.292969 39.089844 L 35.660156 38.664062 C 35.625 40.5 35.597656 42.332031 35.566406 44.164062 Z M 35.566406 44.164062 "/>
<path style=" stroke:none;fill-rule:evenodd;fill:rgb(29.019608%,65.490196%,23.529412%);fill-opacity:1;" d="M 23.601562 17.621094 C 23.714844 17.773438 23.878906 17.90625 23.941406 18.078125 C 25.167969 21.695312 26.390625 25.316406 27.605469 28.941406 C 29.101562 33.429688 30.589844 37.929688 32.09375 42.417969 C 33 45.128906 33.929688 47.839844 34.859375 50.574219 L 35.28125 50.414062 L 35.1875 51.742188 L 35.101562 52.046875 C 34.957031 53.496094 34.832031 54.957031 34.660156 56.40625 C 34.566406 57.128906 34.378906 57.84375 34.234375 58.5625 C 34.128906 58.40625 33.972656 58.261719 33.914062 58.089844 C 30.925781 49.175781 27.945312 40.261719 24.960938 31.347656 C 24.011719 28.511719 23.054688 25.675781 22.09375 22.84375 C 22.042969 22.699219 21.90625 22.585938 21.8125 22.457031 C 22.410156 20.847656 23.003906 19.238281 23.601562 17.621094 Z M 23.601562 17.621094 "/>
<path style=" stroke:none;fill-rule:evenodd;fill:rgb(34.117647%,68.235294%,27.843137%);fill-opacity:1;" d="M 35.660156 38.667969 L 35.292969 39.09375 C 35.191406 38.878906 35.085938 38.699219 35.023438 38.511719 C 33.425781 33.738281 31.84375 28.960938 30.25 24.183594 C 29.023438 20.511719 27.785156 16.847656 26.546875 13.183594 C 26.492188 13.011719 26.367188 12.859375 26.277344 12.699219 L 29.589844 8.34375 C 29.691406 8.484375 29.839844 8.609375 29.894531 8.765625 C 30.8125 11.457031 31.726562 14.152344 32.632812 16.847656 C 33.476562 19.363281 34.3125 21.886719 35.167969 24.402344 C 35.222656 24.566406 35.425781 24.6875 35.558594 24.832031 L 35.5625 25.402344 C 35.597656 29.824219 35.625 34.242188 35.660156 38.667969 Z M 35.660156 38.667969 "/>
<path style=" stroke:none;fill-rule:evenodd;fill:rgb(37.647059%,69.803922%,30.980392%);fill-opacity:1;" d="M 35.558594 24.832031 C 35.425781 24.6875 35.226562 24.566406 35.167969 24.398438 C 34.3125 21.886719 33.476562 19.363281 32.632812 16.847656 C 31.726562 14.152344 30.816406 11.457031 29.894531 8.761719 C 29.84375 8.609375 29.691406 8.484375 29.589844 8.34375 C 30.667969 7.289062 31.710938 6.199219 32.828125 5.191406 C 33.828125 4.296875 34.625 3.339844 34.664062 1.925781 C 34.664062 1.871094 34.695312 1.8125 34.738281 1.648438 L 35.023438 2.359375 C 35.019531 2.722656 34.988281 3.085938 35.007812 3.441406 C 35.050781 4.070312 35.152344 4.691406 35.179688 5.316406 C 35.230469 6.476562 35.257812 7.644531 35.28125 8.808594 C 35.320312 10.683594 35.351562 12.558594 35.378906 14.433594 C 35.414062 17.429688 35.4375 20.425781 35.476562 23.417969 C 35.480469 23.890625 35.527344 24.359375 35.558594 24.832031 Z M 35.558594 24.832031 "/>
<path style=" stroke:none;fill-rule:evenodd;fill:rgb(66.27451%,66.666667%,53.333333%);fill-opacity:1;" d="M 34.230469 58.5625 C 34.375 57.84375 34.566406 57.128906 34.65625 56.402344 C 34.832031 54.957031 34.953125 53.496094 35.101562 52.046875 L 35.136719 52.039062 L 35.171875 52.046875 C 35.214844 53.871094 35.460938 55.664062 35.933594 57.425781 C 35.839844 57.554688 35.703125 57.664062 35.652344 57.808594 C 35.253906 58.929688 34.878906 60.058594 34.480469 61.183594 C 34.425781 61.335938 34.273438 61.457031 34.167969 61.589844 L 33.753906 60.1875 Z M 34.230469 58.5625 "/>
<path style=" stroke:none;fill-rule:evenodd;fill:rgb(71.372549%,70.980392%,59.607843%);fill-opacity:1;" d="M 34.167969 61.589844 C 34.277344 61.457031 34.425781 61.335938 34.480469 61.183594 C 34.878906 60.058594 35.253906 58.933594 35.652344 57.808594 C 35.703125 57.667969 35.839844 57.554688 35.933594 57.425781 L 36.621094 58.933594 C 36.484375 59.125 36.300781 59.300781 36.222656 59.511719 L 34.910156 63.375 C 34.855469 63.527344 34.667969 63.636719 34.546875 63.769531 Z M 34.167969 61.589844 "/>
<path style=" stroke:none;fill-rule:evenodd;fill:rgb(76.078431%,75.686275%,65.490196%);fill-opacity:1;" d="M 34.546875 63.769531 C 34.667969 63.636719 34.855469 63.527344 34.910156 63.375 L 36.222656 59.511719 C 36.300781 59.300781 36.484375 59.125 36.621094 58.933594 L 37.285156 59.5 C 36.964844 59.816406 36.785156 60.183594 36.894531 60.644531 L 36.691406 61.308594 C 36.597656 61.421875 36.46875 61.519531 36.421875 61.648438 C 35.964844 62.964844 35.523438 64.28125 35.0625 65.597656 C 35.003906 65.765625 34.84375 65.894531 34.730469 66.042969 C 34.667969 65.285156 34.609375 64.527344 34.546875 63.769531 Z M 34.546875 63.769531 "/>
<path style=" stroke:none;fill-rule:evenodd;fill:rgb(80.784314%,80.392157%,71.764706%);fill-opacity:1;" d="M 34.730469 66.042969 C 34.84375 65.894531 35.003906 65.765625 35.0625 65.597656 C 35.527344 64.285156 35.964844 62.964844 36.425781 61.648438 C 36.46875 61.519531 36.597656 61.421875 36.691406 61.308594 L 36.414062 64.339844 C 36.339844 64.425781 36.234375 64.5 36.199219 64.597656 C 35.882812 65.484375 35.589844 66.371094 35.269531 67.253906 C 35.207031 67.4375 35.078125 67.597656 34.984375 67.769531 C 34.898438 67.65625 34.742188 67.546875 34.734375 67.425781 C 34.707031 66.96875 34.726562 66.503906 34.730469 66.042969 Z M 34.730469 66.042969 "/>
<path style=" stroke:none;fill-rule:evenodd;fill:rgb(85.882353%,85.490196%,78.039216%);fill-opacity:1;" d="M 34.984375 67.769531 C 35.078125 67.597656 35.207031 67.4375 35.269531 67.253906 C 35.589844 66.371094 35.882812 65.484375 36.195312 64.597656 C 36.234375 64.5 36.339844 64.425781 36.414062 64.339844 L 36.417969 66.332031 L 35.753906 68.039062 Z M 34.984375 67.769531 "/>
<path style=" stroke:none;fill-rule:evenodd;fill:rgb(92.156863%,91.372549%,86.27451%);fill-opacity:1;" d="M 35.753906 68.039062 L 36.417969 66.332031 L 36.558594 68.351562 Z M 35.753906 68.039062 "/>
<path style=" stroke:none;fill-rule:evenodd;fill:rgb(80.784314%,80.392157%,71.764706%);fill-opacity:1;" d="M 36.894531 60.644531 C 36.785156 60.183594 36.964844 59.816406 37.285156 59.5 L 37.46875 59.625 Z M 36.894531 60.644531 "/>
<path style=" stroke:none;fill-rule:evenodd;fill:rgb(30.980392%,66.666667%,25.490196%);fill-opacity:1;" d="M 35.171875 52.050781 L 35.136719 52.039062 L 35.101562 52.046875 L 35.1875 51.742188 Z M 35.171875 52.050781 "/>
</g>
</svg>
