<?xml version="1.0" encoding="UTF-8"?>
<svg xmlns="http://www.w3.org/2000/svg" xmlns:xlink="http://www.w3.org/1999/xlink" width="70px" height="70px" viewBox="0 0 70 70" version="1.1">
<g id="surface1">
<path style=" stroke:none;fill-rule:nonzero;fill:rgb(87.843137%,13.72549%,30.588235%);fill-opacity:1;" d="M 41.214844 0.230469 C 40.710938 0.230469 40.242188 0.339844 39.808594 0.484375 C 40.730469 1.097656 41.234375 1.910156 41.488281 2.832031 C 41.503906 2.957031 41.542969 3.046875 41.558594 3.171875 C 41.578125 3.277344 41.597656 3.386719 41.597656 3.496094 C 41.667969 5.082031 41.183594 5.28125 40.839844 6.21875 C 40.3125 7.425781 40.457031 8.726562 41.089844 9.769531 C 41.144531 9.894531 41.214844 10.039062 41.308594 10.167969 C 40.621094 5.605469 44.4375 4.917969 45.140625 3.496094 C 45.195312 2.253906 44.164062 1.425781 43.351562 0.84375 C 42.570312 0.378906 41.867188 0.230469 41.214844 0.230469 Z M 46.964844 1.261719 C 46.890625 1.675781 46.945312 1.566406 46.929688 1.78125 C 46.910156 1.925781 46.910156 2.109375 46.890625 2.253906 C 46.855469 2.398438 46.820312 2.539062 46.765625 2.683594 C 46.730469 2.832031 46.675781 2.972656 46.625 3.117188 C 46.550781 3.261719 46.496094 3.386719 46.421875 3.53125 C 46.371094 3.605469 46.332031 3.675781 46.277344 3.75 C 46.242188 3.804688 46.207031 3.859375 46.167969 3.910156 C 46.078125 4.039062 45.988281 4.164062 45.898438 4.269531 C 45.789062 4.378906 45.699219 4.507812 45.574219 4.597656 L 45.574219 4.613281 C 45.464844 4.707031 45.355469 4.8125 45.230469 4.902344 C 44.851562 5.191406 44.417969 5.40625 44.019531 5.679688 C 43.890625 5.765625 43.765625 5.839844 43.65625 5.949219 C 43.53125 6.039062 43.421875 6.128906 43.316406 6.238281 C 43.1875 6.347656 43.097656 6.453125 42.988281 6.578125 C 42.898438 6.683594 42.789062 6.8125 42.714844 6.941406 C 42.625 7.066406 42.535156 7.191406 42.464844 7.320312 C 42.390625 7.460938 42.335938 7.589844 42.265625 7.734375 C 42.210938 7.878906 42.15625 8.003906 42.121094 8.144531 C 42.066406 8.308594 42.03125 8.453125 41.996094 8.597656 C 41.976562 8.671875 41.976562 8.761719 41.957031 8.832031 C 41.941406 8.90625 41.941406 8.976562 41.921875 9.046875 C 41.921875 9.191406 41.902344 9.355469 41.902344 9.5 C 41.902344 9.605469 41.902344 9.714844 41.921875 9.824219 C 41.921875 9.964844 41.941406 10.113281 41.976562 10.273438 C 41.996094 10.421875 42.03125 10.5625 42.066406 10.707031 C 42.121094 10.851562 42.15625 10.996094 42.210938 11.140625 C 42.25 11.230469 42.300781 11.320312 42.335938 11.394531 L 38.179688 9.785156 C 37.472656 9.589844 36.789062 9.410156 36.082031 9.246094 C 35.703125 9.15625 35.324219 9.066406 34.941406 8.976562 C 33.859375 8.761719 32.753906 8.597656 31.652344 8.488281 C 31.617188 8.488281 31.601562 8.472656 31.5625 8.472656 C 30.480469 8.363281 29.414062 8.308594 28.328125 8.308594 C 27.53125 8.308594 26.738281 8.34375 25.960938 8.398438 C 24.859375 8.472656 23.753906 8.617188 22.652344 8.796875 C 22.378906 8.832031 22.105469 8.886719 21.839844 8.941406 C 21.277344 9.046875 20.734375 9.175781 20.210938 9.300781 C 19.9375 9.375 19.667969 9.445312 19.398438 9.519531 C 19.128906 9.625 18.871094 9.753906 18.617188 9.859375 C 18.421875 9.949219 18.222656 10.039062 18.023438 10.128906 C 17.988281 10.148438 17.949219 10.148438 17.933594 10.167969 C 17.75 10.257812 17.589844 10.328125 17.425781 10.417969 C 17.371094 10.4375 17.335938 10.453125 17.300781 10.472656 C 17.101562 10.5625 16.902344 10.671875 16.738281 10.761719 C 16.613281 10.816406 16.484375 10.886719 16.378906 10.941406 C 16.324219 10.980469 16.25 11.015625 16.214844 11.035156 C 16.054688 11.121094 15.890625 11.214844 15.746094 11.300781 C 15.582031 11.394531 15.4375 11.480469 15.3125 11.570312 C 15.183594 11.660156 15.058594 11.734375 14.949219 11.824219 C 14.933594 11.84375 14.914062 11.84375 14.894531 11.863281 C 14.789062 11.933594 14.660156 12.023438 14.550781 12.113281 C 14.550781 12.113281 14.535156 12.132812 14.515625 12.148438 C 14.425781 12.21875 14.335938 12.292969 14.242188 12.367188 C 14.210938 12.382812 14.171875 12.417969 14.136719 12.4375 C 14.046875 12.511719 13.957031 12.601562 13.867188 12.675781 C 13.847656 12.707031 13.8125 12.726562 13.792969 12.746094 C 13.683594 12.855469 13.574219 12.941406 13.464844 13.050781 C 13.449219 13.050781 13.449219 13.066406 13.429688 13.085938 C 13.324219 13.175781 13.214844 13.285156 13.105469 13.394531 C 13.089844 13.410156 13.089844 13.429688 13.070312 13.429688 C 12.980469 13.519531 12.890625 13.609375 12.800781 13.71875 C 12.761719 13.753906 12.710938 13.789062 12.675781 13.828125 C 12.582031 13.933594 12.472656 14.042969 12.363281 14.152344 C 12.347656 14.1875 12.308594 14.207031 12.292969 14.242188 C 12.148438 14.386719 12.023438 14.527344 11.875 14.671875 C 11.859375 14.691406 11.84375 14.707031 11.824219 14.726562 C 11.535156 15.035156 11.222656 15.339844 10.902344 15.609375 C 10.574219 15.902344 10.230469 16.167969 9.890625 16.402344 C 9.527344 16.65625 9.183594 16.875 8.804688 17.089844 C 8.441406 17.285156 8.0625 17.46875 7.664062 17.628906 C 7.285156 17.792969 6.886719 17.933594 6.488281 18.0625 C 5.730469 18.222656 4.953125 18.53125 4.285156 18.585938 C 4.140625 18.585938 3.980469 18.621094 3.832031 18.640625 C 3.667969 18.675781 3.523438 18.710938 3.378906 18.746094 C 3.234375 18.800781 3.09375 18.855469 2.945312 18.910156 C 2.800781 18.964844 2.65625 19.035156 2.511719 19.109375 C 2.386719 19.199219 2.242188 19.269531 2.113281 19.363281 C 1.988281 19.449219 1.863281 19.558594 1.753906 19.667969 C 1.628906 19.753906 1.5 19.882812 1.390625 19.992188 C 1.28125 20.117188 1.175781 20.226562 1.085938 20.351562 C 0.992188 20.496094 0.886719 20.621094 0.8125 20.769531 C 0.722656 20.894531 0.632812 21.035156 0.558594 21.179688 C 0.488281 21.339844 0.414062 21.488281 0.359375 21.652344 C 0.308594 21.796875 0.253906 21.957031 0.199219 22.117188 C 0.160156 22.261719 0.125 22.410156 0.109375 22.550781 C 0.109375 22.570312 0.0898438 22.589844 0.0898438 22.605469 C 0.0546875 22.769531 0.0546875 22.980469 0.0351562 23.089844 C 0.0195312 23.21875 0 23.328125 0 23.453125 C 0 23.523438 0 23.613281 0.0195312 23.6875 C 0.0351562 23.8125 0.0546875 23.921875 0.0898438 24.03125 C 0.125 24.136719 0.160156 24.246094 0.214844 24.355469 L 0.214844 24.371094 C 0.269531 24.480469 0.339844 24.589844 0.414062 24.695312 C 0.488281 24.804688 0.558594 24.914062 0.652344 25.023438 C 0.742188 25.109375 0.851562 25.21875 0.960938 25.308594 C 1.066406 25.417969 1.175781 25.507812 1.300781 25.597656 C 1.738281 25.976562 1.847656 26.101562 2.402344 26.390625 C 2.496094 26.445312 2.582031 26.480469 2.691406 26.535156 C 2.710938 26.535156 2.730469 26.554688 2.746094 26.554688 C 2.746094 26.589844 2.746094 26.609375 2.765625 26.644531 C 2.785156 26.789062 2.820312 26.929688 2.855469 27.074219 C 2.894531 27.238281 2.945312 27.382812 3 27.511719 C 3.054688 27.617188 3.09375 27.722656 3.148438 27.832031 C 3.164062 27.867188 3.179688 27.902344 3.199219 27.921875 C 3.273438 28.066406 3.34375 28.195312 3.414062 28.320312 C 3.507812 28.445312 3.597656 28.570312 3.6875 28.699219 C 3.777344 28.808594 3.886719 28.933594 3.996094 29.042969 C 4.105469 29.152344 4.214844 29.238281 4.339844 29.347656 C 4.339844 29.347656 4.355469 29.363281 4.375 29.363281 C 4.480469 29.457031 4.589844 29.542969 4.699219 29.617188 C 4.824219 29.707031 4.953125 29.78125 5.097656 29.851562 C 5.226562 29.925781 5.367188 29.996094 5.515625 30.050781 C 5.621094 30.105469 5.75 30.140625 5.875 30.175781 C 5.894531 30.195312 5.910156 30.195312 5.949219 30.210938 C 6.019531 30.230469 6.113281 30.25 6.183594 30.265625 C 6.128906 31.238281 6.113281 32.160156 6.253906 32.484375 C 6.417969 32.84375 7.214844 31.746094 8.007812 30.484375 C 7.898438 31.726562 7.828125 33.1875 8.007812 33.621094 C 8.207031 34.070312 9.292969 32.664062 10.230469 31.113281 C 23.046875 28.160156 34.746094 36.992188 35.976562 49.46875 C 35.742188 47.519531 33.335938 46.4375 32.234375 46.707031 C 31.6875 48.042969 30.769531 49.753906 29.285156 50.816406 C 29.414062 49.628906 29.359375 48.402344 29.105469 47.214844 C 28.707031 48.871094 27.933594 50.421875 26.863281 51.757812 C 25.144531 51.882812 23.429688 51.054688 22.523438 49.808594 C 22.453125 49.753906 22.433594 49.648438 22.378906 49.574219 C 22.324219 49.449219 22.269531 49.324219 22.234375 49.195312 C 22.179688 49.066406 22.144531 48.941406 22.125 48.816406 C 22.105469 48.691406 22.105469 48.566406 22.105469 48.421875 C 22.105469 48.332031 22.105469 48.238281 22.105469 48.148438 C 22.125 48.023438 22.160156 47.898438 22.199219 47.773438 C 22.234375 47.644531 22.269531 47.519531 22.324219 47.394531 C 22.398438 47.265625 22.453125 47.140625 22.542969 47.015625 C 22.851562 46.148438 22.851562 45.449219 22.289062 45.03125 C 22.179688 44.960938 22.074219 44.90625 21.945312 44.851562 C 21.871094 44.832031 21.785156 44.796875 21.710938 44.78125 C 21.65625 44.761719 21.621094 44.742188 21.566406 44.726562 C 21.441406 44.6875 21.316406 44.652344 21.1875 44.636719 C 21.058594 44.601562 20.933594 44.582031 20.804688 44.582031 C 20.679688 44.5625 20.539062 44.546875 20.410156 44.546875 C 20.320312 44.546875 20.230469 44.5625 20.136719 44.5625 C 19.992188 44.5625 19.867188 44.582031 19.738281 44.617188 C 19.613281 44.636719 19.488281 44.652344 19.363281 44.6875 C 19.238281 44.726562 19.109375 44.761719 18.980469 44.8125 C 18.855469 44.867188 18.746094 44.921875 18.617188 44.976562 C 18.511719 45.03125 18.402344 45.105469 18.277344 45.160156 C 14.0625 47.898438 16.578125 54.316406 19.453125 56.171875 C 18.367188 56.371094 17.265625 56.605469 16.957031 56.839844 C 16.941406 56.859375 16.921875 56.875 16.921875 56.875 C 17.699219 57.34375 18.511719 57.742188 19.363281 58.082031 C 20.519531 58.464844 21.746094 58.804688 22.289062 58.949219 L 22.289062 58.964844 C 23.792969 59.273438 25.308594 59.382812 26.847656 59.292969 C 34.855469 58.730469 41.417969 52.65625 42.609375 44.652344 C 42.644531 44.8125 42.679688 44.960938 42.71875 45.121094 C 42.769531 45.449219 42.84375 45.785156 42.878906 46.132812 L 42.878906 46.148438 C 42.917969 46.3125 42.933594 46.472656 42.953125 46.617188 L 42.953125 46.691406 C 42.972656 46.855469 42.988281 47.015625 42.988281 47.160156 C 43.007812 47.355469 43.027344 47.554688 43.027344 47.753906 L 43.027344 48.042969 C 43.027344 48.132812 43.042969 48.238281 43.042969 48.332031 C 43.042969 48.441406 43.027344 48.550781 43.027344 48.65625 L 43.027344 48.90625 C 43.027344 49.035156 43.007812 49.140625 43.007812 49.269531 C 43.007812 49.339844 43.007812 49.414062 42.988281 49.503906 C 42.988281 49.628906 42.972656 49.753906 42.972656 49.898438 C 42.953125 49.953125 42.953125 50.007812 42.953125 50.0625 C 42.933594 50.207031 42.917969 50.332031 42.898438 50.476562 C 42.898438 50.527344 42.898438 50.582031 42.878906 50.636719 C 42.863281 50.816406 42.824219 50.980469 42.808594 51.164062 L 42.808594 51.195312 C 42.769531 51.359375 42.734375 51.539062 42.699219 51.703125 L 42.699219 51.757812 C 42.664062 51.917969 42.625 52.082031 42.589844 52.242188 C 42.589844 52.261719 42.570312 52.296875 42.570312 52.316406 C 42.535156 52.476562 42.5 52.640625 42.445312 52.804688 L 42.445312 52.855469 C 42.390625 53.035156 42.335938 53.199219 42.300781 53.363281 C 42.28125 53.378906 42.28125 53.398438 42.28125 53.398438 C 42.230469 53.578125 42.175781 53.757812 42.121094 53.9375 C 42.050781 54.117188 41.996094 54.28125 41.921875 54.460938 C 41.847656 54.640625 41.792969 54.820312 41.722656 54.984375 C 41.648438 55.164062 41.578125 55.324219 41.503906 55.503906 L 41.488281 55.503906 C 41.414062 55.667969 41.34375 55.847656 41.253906 56.011719 C 41.234375 56.066406 41.214844 56.101562 41.199219 56.136719 C 41.179688 56.15625 41.179688 56.171875 41.164062 56.191406 C 39.988281 58.550781 38.25 60.625 36.082031 62.246094 C 35.9375 62.339844 35.792969 62.445312 35.648438 62.554688 C 35.613281 62.589844 35.558594 62.609375 35.523438 62.644531 C 35.394531 62.734375 35.269531 62.824219 35.121094 62.914062 L 35.175781 63.023438 L 35.195312 63.023438 C 35.449219 62.988281 35.703125 62.949219 35.957031 62.914062 L 35.972656 62.914062 C 36.445312 62.84375 36.914062 62.75 37.382812 62.664062 C 37.511719 62.644531 37.65625 62.609375 37.78125 62.574219 C 37.875 62.554688 37.945312 62.539062 38.035156 62.519531 C 38.160156 62.5 38.289062 62.464844 38.414062 62.445312 C 38.523438 62.410156 38.632812 62.394531 38.742188 62.355469 C 40.546875 61.925781 42.300781 61.328125 43.980469 60.625 C 41.109375 64.535156 37.257812 67.691406 32.753906 69.765625 C 34.835938 69.621094 36.914062 69.277344 38.921875 68.699219 C 46.207031 66.558594 52.332031 61.671875 56.003906 55.089844 C 55.265625 59.257812 53.597656 63.222656 51.140625 66.683594 C 52.894531 65.527344 54.503906 64.195312 55.96875 62.679688 C 60.015625 58.464844 62.675781 53.109375 63.578125 47.355469 C 64.195312 50.207031 64.375 53.144531 64.101562 56.046875 C 77.15625 37.894531 65.1875 19.074219 60.179688 14.113281 C 60.160156 14.078125 60.144531 14.058594 60.144531 14.023438 C 60.125 14.042969 60.125 14.042969 60.125 14.058594 C 60.125 14.042969 60.125 14.042969 60.105469 14.023438 C 60.105469 14.242188 60.089844 14.457031 60.070312 14.671875 C 60.015625 15.089844 59.960938 15.484375 59.890625 15.882812 C 59.800781 16.277344 59.691406 16.675781 59.585938 17.070312 C 59.457031 17.449219 59.3125 17.847656 59.148438 18.222656 C 58.988281 18.585938 58.804688 18.964844 58.605469 19.324219 C 58.410156 19.667969 58.191406 20.027344 57.957031 20.351562 C 57.71875 20.695312 57.46875 21.019531 57.214844 21.324219 C 56.941406 21.652344 56.652344 21.9375 56.367188 22.226562 C 56.1875 22.390625 56.023438 22.535156 55.839844 22.675781 C 55.695312 22.804688 55.570312 22.910156 55.425781 23.035156 C 55.101562 23.292969 54.773438 23.523438 54.414062 23.742188 C 54.070312 23.957031 53.707031 24.175781 53.347656 24.355469 C 52.96875 24.535156 52.585938 24.695312 52.207031 24.859375 C 51.832031 25.003906 51.429688 25.128906 51.03125 25.238281 C 50.636719 25.34375 50.21875 25.433594 49.824219 25.507812 C 49.40625 25.582031 48.992188 25.617188 48.59375 25.652344 C 48.300781 25.671875 48.011719 25.691406 47.722656 25.691406 C 47.308594 25.691406 46.890625 25.652344 46.496094 25.617188 C 46.078125 25.582031 45.664062 25.527344 45.269531 25.433594 C 44.851562 25.363281 44.453125 25.257812 44.054688 25.128906 L 44.035156 25.128906 C 44.4375 25.09375 44.832031 25.058594 45.230469 24.984375 C 45.644531 24.914062 46.042969 24.824219 46.441406 24.714844 C 46.835938 24.605469 47.238281 24.480469 47.617188 24.335938 C 48.011719 24.191406 48.394531 24.011719 48.757812 23.832031 C 49.132812 23.648438 49.480469 23.453125 49.839844 23.238281 C 50.183594 23 50.527344 22.769531 50.851562 22.515625 C 51.179688 22.261719 51.484375 21.992188 51.777344 21.703125 C 52.082031 21.433594 52.351562 21.128906 52.621094 20.824219 C 52.894531 20.496094 53.148438 20.171875 53.382812 19.847656 C 53.417969 19.792969 53.453125 19.71875 53.492188 19.667969 C 53.671875 19.378906 53.855469 19.089844 54.015625 18.800781 C 54.214844 18.441406 54.394531 18.082031 54.558594 17.703125 C 54.71875 17.324219 54.863281 16.945312 54.992188 16.546875 C 55.117188 16.167969 55.210938 15.773438 55.300781 15.375 C 55.371094 14.960938 55.445312 14.566406 55.480469 14.167969 C 55.515625 13.753906 55.550781 13.339844 55.550781 12.941406 C 55.550781 12.65625 55.53125 12.367188 55.515625 12.078125 C 55.480469 11.660156 55.425781 11.265625 55.371094 10.871094 C 55.300781 10.453125 55.210938 10.058594 55.101562 9.660156 C 54.972656 9.285156 54.847656 8.886719 54.699219 8.507812 C 54.558594 8.128906 54.378906 7.753906 54.199219 7.390625 C 54 7.03125 53.800781 6.667969 53.582031 6.328125 C 53.347656 5.984375 53.113281 5.660156 52.859375 5.335938 C 52.585938 5.027344 52.316406 4.722656 52.027344 4.417969 C 51.882812 4.269531 51.722656 4.109375 51.558594 3.964844 C 50.746094 3.332031 49.894531 2.738281 49.042969 2.199219 C 48.917969 2.125 48.808594 2.074219 48.683594 2.019531 C 48.085938 1.636719 47.527344 1.441406 46.964844 1.261719 Z M 46.964844 1.261719 "/>
</g>
</svg>
