<?xml version="1.0" encoding="UTF-8"?>
<svg xmlns="http://www.w3.org/2000/svg" xmlns:xlink="http://www.w3.org/1999/xlink" width="70px" height="70px" viewBox="0 0 70 70" version="1.1">
<g id="surface1">
<path style=" stroke:none;fill-rule:nonzero;fill:rgb(0%,0%,0%);fill-opacity:1;" d="M 32.707031 0.0195312 C 32.558594 0.03125 32.078125 0.078125 31.648438 0.113281 C 21.707031 1.011719 12.390625 6.375 6.496094 14.617188 C 3.207031 19.203125 1.105469 24.402344 0.316406 29.910156 C 0.0351562 31.832031 0 32.398438 0 35.007812 C 0 37.613281 0.0351562 38.179688 0.316406 40.105469 C 2.21875 53.246094 11.570312 64.289062 24.257812 68.378906 C 26.527344 69.113281 28.925781 69.613281 31.648438 69.914062 C 32.707031 70.03125 37.292969 70.03125 38.351562 69.914062 C 43.050781 69.394531 47.035156 68.230469 50.964844 66.222656 C 51.566406 65.917969 51.683594 65.835938 51.601562 65.765625 C 51.546875 65.726562 48.980469 62.285156 45.902344 58.125 L 40.300781 50.5625 L 33.292969 40.1875 C 29.429688 34.480469 26.253906 29.8125 26.226562 29.8125 C 26.199219 29.808594 26.171875 34.417969 26.160156 40.050781 C 26.136719 49.90625 26.132812 50.304688 26.007812 50.535156 C 25.832031 50.871094 25.695312 51.011719 25.40625 51.160156 C 25.1875 51.269531 24.996094 51.289062 23.960938 51.289062 L 22.78125 51.289062 L 22.464844 51.089844 C 22.261719 50.960938 22.105469 50.792969 22.007812 50.589844 L 21.863281 50.28125 L 21.875 36.566406 L 21.898438 22.84375 L 22.105469 22.574219 C 22.214844 22.433594 22.453125 22.246094 22.617188 22.15625 C 22.894531 22.019531 23.003906 22.007812 24.1875 22.007812 C 25.585938 22.007812 25.816406 22.0625 26.183594 22.460938 C 26.28125 22.570312 30.082031 28.285156 34.625 35.175781 C 39.167969 42.066406 45.378906 51.472656 48.429688 56.09375 L 53.972656 64.488281 L 54.253906 64.304688 C 56.738281 62.6875 59.367188 60.386719 61.445312 57.992188 C 65.875 52.914062 68.730469 46.710938 69.683594 40.105469 C 69.964844 38.179688 70 37.613281 70 35.007812 C 70 32.398438 69.964844 31.832031 69.683594 29.910156 C 67.78125 16.765625 58.429688 5.722656 45.742188 1.632812 C 43.507812 0.90625 41.125 0.40625 38.457031 0.105469 C 37.796875 0.0429688 33.273438 -0.0351562 32.707031 0.0195312 Z M 47.035156 21.1875 C 47.363281 21.351562 47.628906 21.664062 47.730469 21.992188 C 47.785156 22.171875 47.792969 25.976562 47.785156 34.550781 L 47.761719 46.847656 L 45.59375 43.523438 L 43.417969 40.199219 L 43.417969 31.257812 C 43.417969 25.476562 43.445312 22.226562 43.484375 22.070312 C 43.59375 21.6875 43.835938 21.386719 44.164062 21.207031 C 44.441406 21.0625 44.546875 21.050781 45.621094 21.050781 C 46.632812 21.050781 46.808594 21.0625 47.035156 21.1875 Z M 47.035156 21.1875 "/>
</g>
</svg>
