<?xml version="1.0" encoding="UTF-8"?>
<svg xmlns="http://www.w3.org/2000/svg" xmlns:xlink="http://www.w3.org/1999/xlink" width="70px" height="70px" viewBox="0 0 70 70" version="1.1">
<g id="surface1">
<path style=" stroke:none;fill-rule:nonzero;fill:rgb(100%,80.784314%,74.901961%);fill-opacity:1;" d="M 39.484375 64.75 C 39.574219 64.542969 39.808594 64.398438 39.976562 64.222656 C 42.546875 61.527344 45.140625 58.855469 47.675781 56.128906 C 49.28125 54.644531 50.101562 52.492188 49.894531 50.3125 C 49.8125 49.851562 49.707031 49.394531 49.578125 48.949219 C 48.886719 49.605469 48.246094 50.199219 47.597656 50.800781 C 46.589844 51.738281 45.589844 52.675781 44.574219 53.605469 C 43.347656 54.855469 41.480469 55.21875 39.875 54.519531 C 38.253906 53.925781 37.144531 52.421875 37.054688 50.691406 C 37.03125 50.582031 37 50.480469 36.960938 50.375 C 36.191406 51.03125 35.449219 51.632812 34.714844 52.257812 L 19.480469 65.164062 C 19.378906 65.25 19.261719 65.363281 19.164062 65.449219 L 39.472656 65.449219 L 39.441406 65.429688 C 39.332031 65.355469 39.386719 64.949219 39.484375 64.75 Z M 39.484375 64.75 "/>
<path style=" stroke:none;fill-rule:nonzero;fill:rgb(100%,80.784314%,74.901961%);fill-opacity:1;" d="M 18.234375 64.75 C 18.417969 64.515625 18.636719 64.308594 18.878906 64.144531 L 39.964844 46.261719 C 41.398438 45.042969 42.832031 43.816406 44.253906 42.582031 C 44.429688 42.460938 44.566406 42.289062 44.65625 42.089844 C 44.996094 40.609375 45.042969 39.070312 44.796875 37.566406 C 44.578125 37.722656 44.457031 37.785156 44.359375 37.890625 C 42.632812 39.4375 40.914062 40.992188 39.179688 42.527344 C 38 43.714844 36.191406 44.007812 34.703125 43.25 C 33.183594 42.535156 32.25 40.972656 32.339844 39.296875 C 32.339844 39.109375 32.339844 38.925781 32.339844 38.585938 C 32.023438 38.820312 31.785156 38.972656 31.574219 39.148438 C 23.136719 45.90625 14.699219 52.65625 6.265625 59.398438 C 5.886719 59.707031 5.433594 60.382812 4.933594 59.722656 C 4.433594 59.066406 5.191406 58.792969 5.574219 58.484375 C 14.566406 51.273438 23.5625 44.066406 32.5625 36.863281 C 34.027344 35.6875 34.121094 35.195312 33.171875 33.328125 L 32.601562 33.863281 C 31.039062 35.316406 29.464844 36.746094 27.925781 38.21875 C 26.640625 39.460938 24.761719 39.855469 23.085938 39.226562 C 21.414062 38.605469 20.246094 37.074219 20.082031 35.296875 C 19.792969 35.515625 19.542969 35.675781 19.304688 35.863281 L 5.960938 46.203125 C 5.730469 46.425781 5.46875 46.617188 5.183594 46.765625 C 4.964844 46.832031 4.734375 46.820312 4.527344 46.734375 L 4.527344 65.460938 L 18.210938 65.460938 C 18.105469 65.234375 18.117188 64.972656 18.234375 64.75 Z M 18.234375 64.75 "/>
<path style=" stroke:none;fill-rule:nonzero;fill:rgb(100%,38.039216%,58.823529%);fill-opacity:1;" d="M 55.203125 5.300781 C 54.832031 6.519531 54.472656 7.742188 54.148438 8.972656 C 53.523438 10.777344 54.378906 12.753906 56.117188 13.542969 C 58.683594 14.890625 61.574219 15.5 64.46875 15.292969 L 64.46875 5.511719 C 64.433594 5.292969 64.445312 5.074219 64.5 4.863281 C 64.5625 4.746094 64.640625 4.636719 64.730469 4.539062 L 55.199219 4.539062 C 55.34375 4.710938 55.292969 5.007812 55.203125 5.300781 Z M 55.203125 5.300781 "/>
<path style=" stroke:none;fill-rule:nonzero;fill:rgb(100%,52.941176%,68.627451%);fill-opacity:1;" d="M 36.050781 26.316406 C 36.007812 27.410156 35.625 28.460938 34.957031 29.332031 C 32.582031 32.40625 29.84375 35.1875 26.808594 37.625 C 25.808594 38.550781 24.320312 38.730469 23.125 38.0625 C 21.941406 37.558594 21.203125 36.359375 21.28125 35.066406 C 21.351562 34.296875 21.671875 33.570312 22.195312 33 C 25.585938 29.761719 29.261719 26.839844 33.171875 24.261719 C 33.699219 23.851562 34.429688 23.820312 34.988281 24.191406 C 35.714844 24.640625 36.128906 25.464844 36.050781 26.316406 Z M 36.050781 26.316406 "/>
<path style=" stroke:none;fill-rule:nonzero;fill:rgb(100%,52.941176%,68.627451%);fill-opacity:1;" d="M 33.433594 39.582031 C 33.328125 38.597656 33.691406 37.628906 34.410156 36.957031 C 37.734375 33.890625 41.296875 31.101562 45.066406 28.613281 C 45.179688 28.539062 45.285156 28.46875 45.410156 28.394531 C 46.089844 27.902344 47.007812 27.9375 47.652344 28.46875 C 48.273438 28.996094 48.484375 29.859375 48.183594 30.613281 C 47.707031 32.199219 46.824219 33.636719 45.628906 34.785156 C 43.210938 37.191406 40.699219 39.519531 38.191406 41.828125 C 37.40625 42.632812 36.179688 42.808594 35.207031 42.25 C 34.191406 41.722656 33.527344 40.714844 33.433594 39.582031 Z M 33.433594 39.582031 "/>
<path style=" stroke:none;fill-rule:nonzero;fill:rgb(100%,52.941176%,68.627451%);fill-opacity:1;" d="M 49.21875 41.023438 C 48.605469 41.679688 47.972656 42.304688 47.390625 42.976562 C 47.210938 43.238281 47.0625 43.519531 46.953125 43.808594 C 47.273438 43.90625 47.652344 44.15625 47.914062 44.070312 C 49.25 43.621094 50.554688 43.082031 52.019531 42.515625 C 51.703125 43.25 51.464844 43.925781 51.125 44.550781 C 49.726562 46.898438 47.976562 49.015625 45.9375 50.835938 C 45.160156 51.582031 44.355469 52.292969 43.519531 52.980469 C 42.621094 53.726562 41.386719 53.929688 40.292969 53.515625 C 39.199219 53.097656 38.414062 52.125 38.238281 50.964844 C 38.167969 50.328125 38.355469 49.6875 38.761719 49.1875 C 41.734375 45.957031 45.136719 43.144531 48.871094 40.828125 C 48.914062 40.808594 48.964844 40.800781 49.011719 40.796875 Z M 49.21875 41.023438 "/>
<path style=" stroke:none;fill-rule:nonzero;fill:rgb(100%,38.039216%,58.823529%);fill-opacity:1;" d="M 54.238281 32.3125 L 57.980469 15.6875 L 60.605469 16.300781 L 59.25 20.417969 C 57.988281 24.246094 56.707031 28.074219 55.472656 31.90625 C 55.230469 32.613281 54.917969 32.746094 54.238281 32.3125 Z M 54.238281 32.3125 "/>
<path style=" stroke:none;fill-rule:nonzero;fill:rgb(100%,38.039216%,58.823529%);fill-opacity:1;" d="M 50.007812 42.089844 C 50.410156 40.578125 50.800781 39.179688 51.132812 37.765625 C 51.457031 36.398438 52.074219 35.113281 52.941406 34.003906 C 53.472656 33.304688 54.066406 33.582031 54.679688 33.734375 C 55.242188 33.871094 55.386719 34.285156 55.410156 34.828125 C 55.5 36.324219 55.039062 37.808594 54.121094 39 C 53.03125 40.355469 51.617188 41.417969 50.007812 42.089844 Z M 50.007812 42.089844 "/>
<path style=" stroke:none;fill-rule:nonzero;fill:rgb(0%,0%,0%);fill-opacity:1;" d="M 65.613281 6.332031 C 65.644531 5.84375 65.628906 5.355469 65.574219 4.871094 C 65.527344 4.734375 65.4375 4.617188 65.320312 4.539062 C 65.222656 4.460938 65.109375 4.40625 64.988281 4.375 C 64.917969 4.363281 64.816406 4.433594 64.726562 4.535156 C 64.632812 4.636719 64.554688 4.746094 64.496094 4.863281 C 64.4375 5.074219 64.425781 5.292969 64.457031 5.503906 L 64.457031 15.289062 C 61.566406 15.492188 58.675781 14.886719 56.105469 13.539062 C 54.367188 12.753906 53.515625 10.769531 54.136719 8.964844 C 54.464844 7.734375 54.828125 6.515625 55.199219 5.296875 C 55.285156 5.007812 55.335938 4.707031 55.199219 4.535156 C 55.121094 4.453125 55.011719 4.402344 54.902344 4.394531 C 54.753906 4.398438 54.621094 4.445312 54.503906 4.535156 C 54.339844 4.632812 54.207031 4.777344 54.128906 4.953125 C 53.691406 6.265625 53.308594 7.589844 52.972656 8.925781 C 52.847656 9.457031 52.8125 10 52.871094 10.542969 C 53.042969 12.53125 54.363281 14.242188 56.242188 14.917969 C 56.660156 15.085938 56.898438 15.257812 56.785156 15.800781 C 56.625 16.492188 56.46875 17.183594 56.316406 17.878906 C 55.242188 22.578125 54.175781 27.277344 53.113281 31.980469 C 53.085938 32.191406 52.992188 32.386719 52.851562 32.542969 C 52.152344 33.097656 51.566406 33.785156 51.121094 34.554688 C 50.554688 35.578125 50.160156 36.6875 49.960938 37.835938 C 49.882812 38.585938 49.417969 39.234375 48.738281 39.550781 C 47.828125 40.019531 46.988281 40.613281 45.980469 41.234375 C 46.042969 40.019531 46.03125 38.796875 45.9375 37.578125 C 45.78125 36.816406 46.015625 36.03125 46.558594 35.480469 C 47.894531 34.15625 48.84375 32.496094 49.308594 30.679688 C 49.59375 29.824219 49.449219 28.886719 48.933594 28.152344 C 48.410156 27.417969 47.570312 26.972656 46.667969 26.960938 C 45.949219 26.953125 45.242188 27.15625 44.636719 27.539062 C 42.542969 28.953125 40.503906 30.453125 38.488281 31.96875 C 37.289062 32.871094 36.160156 33.871094 35.003906 34.8125 C 34.953125 34.761719 34.910156 34.703125 34.871094 34.636719 C 34.847656 34.476562 34.804688 34.320312 34.746094 34.167969 C 33.773438 32.671875 34.445312 31.585938 35.5 30.46875 C 36.59375 29.316406 37.199219 27.789062 37.1875 26.199219 C 37.222656 25.390625 36.96875 24.597656 36.472656 23.957031 C 36.207031 23.628906 35.882812 23.359375 35.515625 23.164062 C 34.441406 22.574219 33.117188 22.714844 32.199219 23.515625 L 31.585938 23.953125 C 30.191406 24.949219 28.777344 25.921875 27.441406 26.992188 C 25.480469 28.546875 23.570312 30.167969 21.699219 31.832031 C 20.824219 32.605469 20.183594 33.65625 19.273438 34.375 C 14.539062 38.113281 9.757812 41.785156 4.988281 45.480469 C 4.824219 45.578125 4.675781 45.695312 4.542969 45.832031 C 4.527344 45.851562 4.515625 45.875 4.507812 45.894531 C 4.40625 46.132812 4.320312 46.515625 4.4375 46.660156 C 4.46875 46.691406 4.503906 46.714844 4.542969 46.734375 C 4.75 46.816406 4.980469 46.828125 5.199219 46.765625 C 5.480469 46.617188 5.746094 46.425781 5.972656 46.199219 L 19.316406 35.855469 C 19.558594 35.667969 19.808594 35.503906 20.101562 35.292969 C 20.257812 37.074219 21.425781 38.601562 23.101562 39.222656 C 24.773438 39.847656 26.65625 39.457031 27.941406 38.21875 C 29.472656 36.742188 31.054688 35.316406 32.617188 33.863281 L 33.183594 33.328125 C 34.136719 35.195312 34.039062 35.6875 32.574219 36.863281 C 23.570312 44.070312 14.570312 51.277344 5.574219 58.484375 C 5.191406 58.792969 4.4375 59.070312 4.933594 59.722656 C 5.425781 60.375 5.886719 59.707031 6.265625 59.398438 C 14.707031 52.660156 23.136719 45.914062 31.5625 39.15625 C 31.78125 38.980469 32.011719 38.824219 32.328125 38.597656 L 32.328125 39.300781 C 32.242188 40.976562 33.175781 42.539062 34.691406 43.253906 C 36.183594 44.011719 37.996094 43.722656 39.167969 42.535156 C 40.90625 41.003906 42.625 39.441406 44.347656 37.898438 C 44.457031 37.800781 44.582031 37.726562 44.785156 37.574219 C 45.03125 39.078125 44.984375 40.613281 44.644531 42.097656 C 44.5625 42.296875 44.421875 42.464844 44.246094 42.589844 C 42.820312 43.820312 41.390625 45.050781 39.953125 46.269531 L 18.878906 64.15625 C 18.636719 64.320312 18.417969 64.523438 18.234375 64.757812 C 18.121094 64.976562 18.109375 65.234375 18.210938 65.460938 C 18.410156 65.613281 18.667969 65.660156 18.910156 65.601562 C 19.007812 65.574219 19.089844 65.523438 19.164062 65.457031 C 19.273438 65.371094 19.382812 65.253906 19.480469 65.167969 L 34.714844 52.261719 C 35.445312 51.636719 36.183594 51.027344 36.957031 50.378906 C 36.996094 50.484375 37.027344 50.589844 37.054688 50.699219 C 37.140625 52.425781 38.25 53.929688 39.875 54.527344 C 41.476562 55.226562 43.347656 54.859375 44.574219 53.613281 C 45.585938 52.6875 46.589844 51.746094 47.597656 50.808594 C 48.253906 50.207031 48.886719 49.605469 49.578125 48.953125 C 49.707031 49.402344 49.8125 49.859375 49.886719 50.320312 C 50.09375 52.492188 49.273438 54.632812 47.675781 56.113281 C 45.136719 58.84375 42.542969 61.515625 39.972656 64.207031 C 39.804688 64.378906 39.574219 64.527344 39.480469 64.738281 C 39.386719 64.945312 39.332031 65.347656 39.441406 65.4375 L 39.472656 65.457031 C 39.699219 65.566406 39.957031 65.605469 40.207031 65.566406 C 40.28125 65.554688 40.347656 65.511719 40.390625 65.457031 C 40.449219 65.394531 40.511719 65.316406 40.566406 65.253906 C 42.648438 63.101562 44.742188 60.964844 46.808594 58.792969 C 47.644531 57.949219 48.429688 57.054688 49.160156 56.117188 C 51.101562 53.964844 51.625 50.878906 50.496094 48.210938 C 50.433594 47.917969 50.492188 47.613281 50.652344 47.363281 C 50.796875 47.117188 50.957031 46.878906 51.121094 46.644531 C 51.636719 45.972656 52.066406 45.238281 52.402344 44.457031 C 53.050781 42.542969 54.039062 40.761719 55.332031 39.207031 C 56.535156 37.683594 56.9375 35.679688 56.425781 33.804688 C 56.335938 33.457031 56.335938 33.089844 56.425781 32.734375 C 57.53125 29.308594 58.671875 25.890625 59.796875 22.472656 C 60.308594 20.941406 60.808594 19.414062 61.308594 17.890625 L 61.773438 16.472656 C 62.769531 16.472656 63.703125 16.457031 64.636719 16.472656 C 65.410156 16.496094 65.648438 16.136719 65.636719 15.378906 C 65.59375 12.363281 65.613281 9.347656 65.613281 6.332031 Z M 26.808594 37.625 C 25.808594 38.550781 24.320312 38.730469 23.125 38.0625 C 21.941406 37.558594 21.203125 36.359375 21.28125 35.066406 C 21.351562 34.296875 21.671875 33.570312 22.195312 33 C 25.585938 29.761719 29.261719 26.839844 33.171875 24.261719 C 33.386719 24.113281 33.628906 24.007812 33.886719 23.957031 C 34.058594 23.925781 34.234375 23.925781 34.40625 23.957031 C 34.613281 23.996094 34.8125 24.074219 34.988281 24.191406 C 35.714844 24.640625 36.128906 25.464844 36.050781 26.324219 C 36.007812 27.414062 35.625 28.464844 34.957031 29.332031 C 32.582031 32.40625 29.84375 35.1875 26.808594 37.625 Z M 38.183594 41.84375 C 37.402344 42.648438 36.175781 42.824219 35.199219 42.265625 C 34.1875 41.738281 33.519531 40.726562 33.425781 39.585938 C 33.328125 38.605469 33.691406 37.636719 34.410156 36.960938 C 37.730469 33.898438 41.292969 31.109375 45.0625 28.621094 C 45.175781 28.550781 45.28125 28.480469 45.402344 28.402344 C 46.082031 27.914062 47.007812 27.945312 47.644531 28.480469 C 48.265625 29.003906 48.480469 29.867188 48.175781 30.621094 C 47.699219 32.207031 46.820312 33.644531 45.621094 34.792969 C 43.210938 37.207031 40.699219 39.527344 38.191406 41.835938 Z M 51.113281 44.558594 C 49.71875 46.902344 47.972656 49.019531 45.9375 50.835938 C 45.160156 51.582031 44.355469 52.292969 43.519531 52.980469 C 42.621094 53.726562 41.386719 53.929688 40.292969 53.515625 C 39.199219 53.097656 38.414062 52.125 38.238281 50.964844 C 38.167969 50.328125 38.355469 49.6875 38.761719 49.1875 C 41.734375 45.957031 45.136719 43.144531 48.871094 40.828125 C 48.914062 40.808594 48.964844 40.800781 49.011719 40.796875 L 49.230469 41.015625 C 48.621094 41.671875 47.992188 42.296875 47.402344 42.972656 C 47.226562 43.226562 47.078125 43.507812 46.964844 43.800781 C 47.285156 43.894531 47.664062 44.152344 47.929688 44.058594 C 48.988281 43.707031 50.027344 43.292969 51.136719 42.855469 L 52.039062 42.503906 C 51.699219 43.25 51.457031 43.925781 51.121094 44.550781 Z M 54.117188 39.015625 C 53.300781 40.054688 52.277344 40.910156 51.113281 41.53125 C 50.753906 41.734375 50.386719 41.921875 50.007812 42.097656 C 50.398438 40.609375 50.785156 39.230469 51.113281 37.832031 L 51.128906 37.777344 C 51.453125 36.40625 52.066406 35.121094 52.933594 34.011719 C 53.464844 33.3125 54.0625 33.589844 54.675781 33.742188 C 55.238281 33.882812 55.378906 34.292969 55.40625 34.835938 C 55.496094 36.335938 55.039062 37.816406 54.121094 39.003906 Z M 59.238281 20.421875 C 57.972656 24.25 56.691406 28.078125 55.460938 31.90625 C 55.226562 32.628906 54.914062 32.761719 54.230469 32.328125 L 57.476562 17.90625 L 57.976562 15.691406 L 60.601562 16.304688 C 60.421875 16.847656 60.246094 17.378906 60.070312 17.90625 Z M 59.238281 20.421875 "/>
</g>
</svg>
